999
DXF from OpenSCAD
  0
SECTION
  2
HEADER
  9
$ACADVER
  1
AC1006
  9
$INSBASE
 10
0.0
 20
0.0
 30
0.0
  9
$EXTMIN
 10
5
 20
13.4507
  9
$EXTMAX
 10
1282
 20
1163
  9
$LINMIN
 10
5
 20
13.4507
  9
$LINMAX
 10
1282
 20
1163
  0
ENDSEC
  0
SECTION
  2
TABLES
  0
TABLE
  2
LTYPE
 70
1
  0
LTYPE
  2
CONTINUOUS
 70
64
  3
Solid line
 72
65
 73
0
 40
0.000000
  0
ENDTAB
  0
TABLE
  2
LAYER
 70
6
  0
LAYER
  2
0
 70
64
 62
7
  6
CONTINUOUS
  0
ENDTAB
  0
TABLE
  2
STYLE
 70
0
  0
ENDTAB
  0
ENDSEC
  0
SECTION
  2
BLOCKS
  0
ENDSEC
  0
SECTION
  2
ENTITIES
  0
LWPOLYLINE
100
AcDbEntity
  8
0
100
AcDbPolyline
 90
720
 70
1
 10
652.78
 20
900
 10
662.058
 20
900
 10
671.336
 20
900
 10
680.612
 20
900.001
 10
689.885
 20
900.001
 10
699.155
 20
900.002
 10
708.421
 20
900.003
 10
717.682
 20
900.003
 10
726.938
 20
900.004
 10
736.187
 20
900.005
 10
745.429
 20
900.006
 10
754.663
 20
900.008
 10
763.887
 20
900.009
 10
773.1
 20
900.011
 10
782.302
 20
900.012
 10
791.491
 20
900.014
 10
800.665
 20
900.016
 10
809.823
 20
900.018
 10
818.963
 20
900.02
 10
828.084
 20
900.022
 10
837.183
 20
900.025
 10
846.26
 20
900.028
 10
855.311
 20
900.03
 10
864.334
 20
900.034
 10
873.328
 20
900.037
 10
882.29
 20
900.04
 10
891.217
 20
900.044
 10
900.107
 20
900.047
 10
908.956
 20
900.052
 10
917.763
 20
900.056
 10
926.524
 20
900.06
 10
935.235
 20
900.065
 10
943.895
 20
900.07
 10
952.499
 20
900.075
 10
961.044
 20
900.081
 10
969.527
 20
900.087
 10
977.945
 20
900.093
 10
986.293
 20
900.1
 10
994.568
 20
900.107
 10
1002.77
 20
900.114
 10
1010.89
 20
900.122
 10
1018.92
 20
900.13
 10
1026.87
 20
900.139
 10
1034.72
 20
900.148
 10
1042.49
 20
900.158
 10
1050.15
 20
900.168
 10
1057.71
 20
900.179
 10
1065.17
 20
900.19
 10
1072.52
 20
900.203
 10
1079.75
 20
900.215
 10
1086.88
 20
900.229
 10
1093.88
 20
900.244
 10
1100.77
 20
900.259
 10
1107.53
 20
900.275
 10
1114.17
 20
900.293
 10
1120.68
 20
900.311
 10
1127.06
 20
900.331
 10
1133.31
 20
900.351
 10
1139.43
 20
900.374
 10
1145.41
 20
900.397
 10
1151.26
 20
900.422
 10
1156.98
 20
900.449
 10
1162.56
 20
900.478
 10
1168
 20
900.509
 10
1173.31
 20
900.542
 10
1178.49
 20
900.577
 10
1183.53
 20
900.616
 10
1188.43
 20
900.657
 10
1193.21
 20
900.701
 10
1197.85
 20
900.749
 10
1202.36
 20
900.801
 10
1206.74
 20
900.857
 10
1210.99
 20
900.918
 10
1215.12
 20
900.985
 10
1219.12
 20
901.058
 10
1223
 20
901.138
 10
1226.75
 20
901.226
 10
1230.38
 20
901.323
 10
1233.89
 20
901.431
 10
1237.27
 20
901.55
 10
1240.52
 20
901.683
 10
1243.64
 20
901.831
 10
1246.62
 20
901.997
 10
1249.47
 20
902.182
 10
1252.17
 20
902.39
 10
1254.72
 20
902.623
 10
1257.11
 20
902.884
 10
1259.34
 20
903.174
 10
1261.41
 20
903.496
 10
1263.3
 20
903.852
 10
1265.03
 20
904.242
 10
1266.59
 20
904.666
 10
1268
 20
905.125
 10
1269.26
 20
905.618
 10
1270.39
 20
906.143
 10
1271.4
 20
906.699
 10
1272.3
 20
907.286
 10
1273.11
 20
907.901
 10
1273.83
 20
908.543
 10
1274.47
 20
909.213
 10
1275.05
 20
909.909
 10
1275.57
 20
910.631
 10
1276.05
 20
911.378
 10
1276.47
 20
912.151
 10
1276.86
 20
912.95
 10
1277.22
 20
913.774
 10
1277.54
 20
914.624
 10
1277.84
 20
915.5
 10
1278.11
 20
916.402
 10
1278.36
 20
917.331
 10
1278.6
 20
918.287
 10
1278.81
 20
919.27
 10
1279.01
 20
920.281
 10
1279.2
 20
921.319
 10
1279.37
 20
922.384
 10
1279.53
 20
923.478
 10
1279.68
 20
924.599
 10
1279.82
 20
925.748
 10
1279.95
 20
926.926
 10
1280.07
 20
928.131
 10
1280.19
 20
929.363
 10
1280.29
 20
930.623
 10
1280.39
 20
931.911
 10
1280.49
 20
933.225
 10
1280.58
 20
934.566
 10
1280.66
 20
935.933
 10
1280.74
 20
937.325
 10
1280.82
 20
938.743
 10
1280.89
 20
940.186
 10
1280.95
 20
941.653
 10
1281.02
 20
943.143
 10
1281.08
 20
944.657
 10
1281.13
 20
946.193
 10
1281.18
 20
947.75
 10
1281.23
 20
949.328
 10
1281.28
 20
950.927
 10
1281.33
 20
952.545
 10
1281.37
 20
954.182
 10
1281.41
 20
955.836
 10
1281.45
 20
957.508
 10
1281.48
 20
959.197
 10
1281.52
 20
960.901
 10
1281.55
 20
962.621
 10
1281.58
 20
964.354
 10
1281.61
 20
966.101
 10
1281.63
 20
967.861
 10
1281.66
 20
969.633
 10
1281.68
 20
971.417
 10
1281.71
 20
973.211
 10
1281.73
 20
975.015
 10
1281.75
 20
976.829
 10
1281.77
 20
978.651
 10
1281.79
 20
980.482
 10
1281.81
 20
982.321
 10
1281.82
 20
984.167
 10
1281.84
 20
986.019
 10
1281.85
 20
987.877
 10
1281.87
 20
989.741
 10
1281.88
 20
991.611
 10
1281.89
 20
993.485
 10
1281.9
 20
995.363
 10
1281.91
 20
997.246
 10
1281.92
 20
999.132
 10
1281.93
 20
1001.02
 10
1281.94
 20
1002.91
 10
1281.95
 20
1004.81
 10
1281.96
 20
1006.71
 10
1281.96
 20
1008.61
 10
1281.97
 20
1010.51
 10
1281.97
 20
1012.41
 10
1281.98
 20
1014.32
 10
1281.98
 20
1016.22
 10
1281.99
 20
1018.13
 10
1281.99
 20
1020.04
 10
1281.99
 20
1021.95
 10
1282
 20
1023.86
 10
1282
 20
1025.77
 10
1282
 20
1027.68
 10
1282
 20
1029.59
 10
1282
 20
1031.5
 10
1282
 20
1033.41
 10
1282
 20
1035.32
 10
1282
 20
1037.23
 10
1282
 20
1039.14
 10
1281.99
 20
1041.05
 10
1281.99
 20
1042.96
 10
1281.99
 20
1044.87
 10
1281.98
 20
1046.78
 10
1281.98
 20
1048.68
 10
1281.97
 20
1050.59
 10
1281.97
 20
1052.49
 10
1281.96
 20
1054.39
 10
1281.96
 20
1056.29
 10
1281.95
 20
1058.19
 10
1281.94
 20
1060.09
 10
1281.93
 20
1061.98
 10
1281.92
 20
1063.87
 10
1281.91
 20
1065.75
 10
1281.9
 20
1067.64
 10
1281.89
 20
1069.52
 10
1281.88
 20
1071.39
 10
1281.87
 20
1073.26
 10
1281.85
 20
1075.12
 10
1281.84
 20
1076.98
 10
1281.82
 20
1078.83
 10
1281.81
 20
1080.68
 10
1281.79
 20
1082.52
 10
1281.77
 20
1084.35
 10
1281.75
 20
1086.17
 10
1281.73
 20
1087.98
 10
1281.71
 20
1089.79
 10
1281.68
 20
1091.58
 10
1281.66
 20
1093.37
 10
1281.63
 20
1095.14
 10
1281.61
 20
1096.9
 10
1281.58
 20
1098.65
 10
1281.55
 20
1100.38
 10
1281.52
 20
1102.1
 10
1281.48
 20
1103.8
 10
1281.45
 20
1105.49
 10
1281.41
 20
1107.16
 10
1281.37
 20
1108.82
 10
1281.33
 20
1110.46
 10
1281.28
 20
1112.07
 10
1281.23
 20
1113.67
 10
1281.18
 20
1115.25
 10
1281.13
 20
1116.81
 10
1281.08
 20
1118.34
 10
1281.02
 20
1119.86
 10
1280.95
 20
1121.35
 10
1280.89
 20
1122.81
 10
1280.82
 20
1124.26
 10
1280.74
 20
1125.67
 10
1280.66
 20
1127.07
 10
1280.58
 20
1128.43
 10
1280.49
 20
1129.78
 10
1280.39
 20
1131.09
 10
1280.29
 20
1132.38
 10
1280.19
 20
1133.64
 10
1280.07
 20
1134.87
 10
1279.95
 20
1136.07
 10
1279.82
 20
1137.25
 10
1279.68
 20
1138.4
 10
1279.53
 20
1139.52
 10
1279.37
 20
1140.62
 10
1279.2
 20
1141.68
 10
1279.01
 20
1142.72
 10
1278.81
 20
1143.73
 10
1278.6
 20
1144.71
 10
1278.36
 20
1145.67
 10
1278.11
 20
1146.6
 10
1277.84
 20
1147.5
 10
1277.54
 20
1148.38
 10
1277.22
 20
1149.23
 10
1276.86
 20
1150.05
 10
1276.47
 20
1150.85
 10
1276.05
 20
1151.62
 10
1275.57
 20
1152.37
 10
1275.05
 20
1153.09
 10
1274.47
 20
1153.79
 10
1273.83
 20
1154.46
 10
1273.11
 20
1155.1
 10
1272.3
 20
1155.71
 10
1271.4
 20
1156.3
 10
1270.39
 20
1156.86
 10
1269.26
 20
1157.38
 10
1268
 20
1157.87
 10
1266.59
 20
1158.33
 10
1265.03
 20
1158.76
 10
1263.3
 20
1159.15
 10
1261.41
 20
1159.5
 10
1259.34
 20
1159.83
 10
1257.11
 20
1160.12
 10
1254.72
 20
1160.38
 10
1252.17
 20
1160.61
 10
1249.47
 20
1160.82
 10
1246.62
 20
1161
 10
1243.64
 20
1161.17
 10
1240.52
 20
1161.32
 10
1237.27
 20
1161.45
 10
1233.89
 20
1161.57
 10
1230.38
 20
1161.68
 10
1226.75
 20
1161.77
 10
1223
 20
1161.86
 10
1219.12
 20
1161.94
 10
1215.12
 20
1162.02
 10
1210.99
 20
1162.08
 10
1206.74
 20
1162.14
 10
1202.36
 20
1162.2
 10
1197.85
 20
1162.25
 10
1193.21
 20
1162.3
 10
1188.43
 20
1162.34
 10
1183.53
 20
1162.38
 10
1178.49
 20
1162.42
 10
1173.31
 20
1162.46
 10
1168
 20
1162.49
 10
1162.56
 20
1162.52
 10
1156.98
 20
1162.55
 10
1151.26
 20
1162.58
 10
1145.41
 20
1162.6
 10
1139.43
 20
1162.63
 10
1133.31
 20
1162.65
 10
1127.06
 20
1162.67
 10
1120.68
 20
1162.69
 10
1114.17
 20
1162.71
 10
1107.53
 20
1162.72
 10
1100.77
 20
1162.74
 10
1093.88
 20
1162.76
 10
1086.88
 20
1162.77
 10
1079.75
 20
1162.78
 10
1072.52
 20
1162.8
 10
1065.17
 20
1162.81
 10
1057.71
 20
1162.82
 10
1050.15
 20
1162.83
 10
1042.49
 20
1162.84
 10
1034.72
 20
1162.85
 10
1026.87
 20
1162.86
 10
1018.92
 20
1162.87
 10
1010.89
 20
1162.88
 10
1002.77
 20
1162.89
 10
994.568
 20
1162.89
 10
986.293
 20
1162.9
 10
977.945
 20
1162.91
 10
969.527
 20
1162.91
 10
961.044
 20
1162.92
 10
952.499
 20
1162.92
 10
943.895
 20
1162.93
 10
935.235
 20
1162.93
 10
926.524
 20
1162.94
 10
917.763
 20
1162.94
 10
908.956
 20
1162.95
 10
900.107
 20
1162.95
 10
891.217
 20
1162.96
 10
882.29
 20
1162.96
 10
873.328
 20
1162.96
 10
864.334
 20
1162.97
 10
855.311
 20
1162.97
 10
846.26
 20
1162.97
 10
837.183
 20
1162.98
 10
828.084
 20
1162.98
 10
818.963
 20
1162.98
 10
809.823
 20
1162.98
 10
800.665
 20
1162.98
 10
791.491
 20
1162.99
 10
782.302
 20
1162.99
 10
773.1
 20
1162.99
 10
763.887
 20
1162.99
 10
754.663
 20
1162.99
 10
745.429
 20
1162.99
 10
736.187
 20
1162.99
 10
726.938
 20
1163
 10
717.682
 20
1163
 10
708.421
 20
1163
 10
699.155
 20
1163
 10
689.885
 20
1163
 10
680.612
 20
1163
 10
671.336
 20
1163
 10
662.058
 20
1163
 10
652.78
 20
1163
 10
643.5
 20
1163
 10
634.22
 20
1163
 10
624.942
 20
1163
 10
615.664
 20
1163
 10
606.388
 20
1163
 10
597.115
 20
1163
 10
587.845
 20
1163
 10
578.579
 20
1163
 10
569.318
 20
1163
 10
560.062
 20
1163
 10
550.813
 20
1162.99
 10
541.571
 20
1162.99
 10
532.337
 20
1162.99
 10
523.113
 20
1162.99
 10
513.9
 20
1162.99
 10
504.698
 20
1162.99
 10
495.509
 20
1162.99
 10
486.335
 20
1162.98
 10
477.177
 20
1162.98
 10
468.037
 20
1162.98
 10
458.916
 20
1162.98
 10
449.817
 20
1162.98
 10
440.74
 20
1162.97
 10
431.689
 20
1162.97
 10
422.666
 20
1162.97
 10
413.672
 20
1162.96
 10
404.71
 20
1162.96
 10
395.783
 20
1162.96
 10
386.893
 20
1162.95
 10
378.044
 20
1162.95
 10
369.237
 20
1162.94
 10
360.476
 20
1162.94
 10
351.765
 20
1162.93
 10
343.105
 20
1162.93
 10
334.501
 20
1162.92
 10
325.956
 20
1162.92
 10
317.473
 20
1162.91
 10
309.055
 20
1162.91
 10
300.707
 20
1162.9
 10
292.432
 20
1162.89
 10
284.233
 20
1162.89
 10
276.115
 20
1162.88
 10
268.08
 20
1162.87
 10
260.132
 20
1162.86
 10
252.276
 20
1162.85
 10
244.514
 20
1162.84
 10
236.85
 20
1162.83
 10
229.289
 20
1162.82
 10
221.832
 20
1162.81
 10
214.483
 20
1162.8
 10
207.246
 20
1162.78
 10
200.123
 20
1162.77
 10
193.118
 20
1162.76
 10
186.233
 20
1162.74
 10
179.471
 20
1162.72
 10
172.833
 20
1162.71
 10
166.323
 20
1162.69
 10
159.942
 20
1162.67
 10
153.692
 20
1162.65
 10
147.573
 20
1162.63
 10
141.588
 20
1162.6
 10
135.738
 20
1162.58
 10
130.022
 20
1162.55
 10
124.442
 20
1162.52
 10
118.997
 20
1162.49
 10
113.687
 20
1162.46
 10
108.513
 20
1162.42
 10
103.473
 20
1162.38
 10
98.5674
 20
1162.34
 10
93.7942
 20
1162.3
 10
89.1528
 20
1162.25
 10
84.6418
 20
1162.2
 10
80.26
 20
1162.14
 10
76.006
 20
1162.08
 10
71.8787
 20
1162.02
 10
67.8769
 20
1161.94
 10
63.9997
 20
1161.86
 10
60.2466
 20
1161.77
 10
56.6174
 20
1161.68
 10
53.1127
 20
1161.57
 10
49.7335
 20
1161.45
 10
46.4821
 20
1161.32
 10
43.3613
 20
1161.17
 10
40.3752
 20
1161
 10
37.5287
 20
1160.82
 10
34.8275
 20
1160.61
 10
32.2778
 20
1160.38
 10
29.8859
 20
1160.12
 10
27.6569
 20
1159.83
 10
25.5949
 20
1159.5
 10
23.7012
 20
1159.15
 10
21.9745
 20
1158.76
 10
20.4103
 20
1158.33
 10
19.001
 20
1157.87
 10
17.7369
 20
1157.38
 10
16.6062
 20
1156.86
 10
15.5967
 20
1156.3
 10
14.6957
 20
1155.71
 10
13.8911
 20
1155.1
 10
13.1715
 20
1154.46
 10
12.5266
 20
1153.79
 10
11.9471
 20
1153.09
 10
11.4251
 20
1152.37
 10
10.9533
 20
1151.62
 10
10.5256
 20
1150.85
 10
10.1368
 20
1150.05
 10
9.78228
 20
1149.23
 10
9.45811
 20
1148.38
 10
9.1609
 20
1147.5
 10
8.88771
 20
1146.6
 10
8.63601
 20
1145.67
 10
8.40359
 20
1144.71
 10
8.18853
 20
1143.73
 10
7.98917
 20
1142.72
 10
7.80402
 20
1141.68
 10
7.63179
 20
1140.62
 10
7.47134
 20
1139.52
 10
7.32165
 20
1138.4
 10
7.18182
 20
1137.25
 10
7.05105
 20
1136.07
 10
6.92861
 20
1134.87
 10
6.81386
 20
1133.64
 10
6.7062
 20
1132.38
 10
6.60512
 20
1131.09
 10
6.51014
 20
1129.78
 10
6.42081
 20
1128.43
 10
6.33674
 20
1127.07
 10
6.25758
 20
1125.67
 10
6.18298
 20
1124.26
 10
6.11265
 20
1122.81
 10
6.0463
 20
1121.35
 10
5.98369
 20
1119.86
 10
5.92456
 20
1118.34
 10
5.86871
 20
1116.81
 10
5.81594
 20
1115.25
 10
5.76605
 20
1113.67
 10
5.71887
 20
1112.07
 10
5.67425
 20
1110.46
 10
5.63203
 20
1108.82
 10
5.59207
 20
1107.16
 10
5.55425
 20
1105.49
 10
5.51845
 20
1103.8
 10
5.48456
 20
1102.1
 10
5.45246
 20
1100.38
 10
5.42207
 20
1098.65
 10
5.3933
 20
1096.9
 10
5.36605
 20
1095.14
 10
5.34026
 20
1093.37
 10
5.31584
 20
1091.58
 10
5.29273
 20
1089.79
 10
5.27086
 20
1087.98
 10
5.25018
 20
1086.17
 10
5.23063
 20
1084.35
 10
5.21216
 20
1082.52
 10
5.19471
 20
1080.68
 10
5.17824
 20
1078.83
 10
5.16271
 20
1076.98
 10
5.14808
 20
1075.12
 10
5.13431
 20
1073.26
 10
5.12137
 20
1071.39
 10
5.10922
 20
1069.52
 10
5.09783
 20
1067.64
 10
5.08719
 20
1065.75
 10
5.07725
 20
1063.87
 10
5.068
 20
1061.98
 10
5.05941
 20
1060.09
 10
5.05147
 20
1058.19
 10
5.04415
 20
1056.29
 10
5.03744
 20
1054.39
 10
5.03132
 20
1052.49
 10
5.02579
 20
1050.59
 10
5.02081
 20
1048.68
 10
5.01639
 20
1046.78
 10
5.01251
 20
1044.87
 10
5.00917
 20
1042.96
 10
5.00636
 20
1041.05
 10
5.00406
 20
1039.14
 10
5.00228
 20
1037.23
 10
5.00101
 20
1035.32
 10
5.00025
 20
1033.41
 10
5
 20
1031.5
 10
5.00025
 20
1029.59
 10
5.00101
 20
1027.68
 10
5.00228
 20
1025.77
 10
5.00406
 20
1023.86
 10
5.00636
 20
1021.95
 10
5.00917
 20
1020.04
 10
5.01251
 20
1018.13
 10
5.01639
 20
1016.22
 10
5.02081
 20
1014.32
 10
5.02579
 20
1012.41
 10
5.03132
 20
1010.51
 10
5.03744
 20
1008.61
 10
5.04415
 20
1006.71
 10
5.05147
 20
1004.81
 10
5.05941
 20
1002.91
 10
5.068
 20
1001.02
 10
5.07725
 20
999.132
 10
5.08719
 20
997.246
 10
5.09783
 20
995.363
 10
5.10922
 20
993.485
 10
5.12137
 20
991.611
 10
5.13431
 20
989.741
 10
5.14808
 20
987.877
 10
5.16271
 20
986.019
 10
5.17824
 20
984.167
 10
5.19471
 20
982.321
 10
5.21216
 20
980.482
 10
5.23063
 20
978.651
 10
5.25018
 20
976.829
 10
5.27086
 20
975.015
 10
5.29273
 20
973.211
 10
5.31584
 20
971.417
 10
5.34026
 20
969.633
 10
5.36605
 20
967.861
 10
5.3933
 20
966.101
 10
5.42207
 20
964.354
 10
5.45246
 20
962.621
 10
5.48456
 20
960.901
 10
5.51845
 20
959.197
 10
5.55425
 20
957.508
 10
5.59207
 20
955.836
 10
5.63203
 20
954.182
 10
5.67425
 20
952.545
 10
5.71887
 20
950.927
 10
5.76605
 20
949.328
 10
5.81594
 20
947.75
 10
5.86871
 20
946.193
 10
5.92456
 20
944.657
 10
5.98369
 20
943.143
 10
6.0463
 20
941.653
 10
6.11265
 20
940.186
 10
6.18298
 20
938.743
 10
6.25758
 20
937.325
 10
6.33674
 20
935.933
 10
6.42081
 20
934.566
 10
6.51014
 20
933.225
 10
6.60512
 20
931.911
 10
6.7062
 20
930.623
 10
6.81386
 20
929.363
 10
6.92861
 20
928.131
 10
7.05105
 20
926.926
 10
7.18182
 20
925.748
 10
7.32165
 20
924.599
 10
7.47134
 20
923.478
 10
7.63179
 20
922.384
 10
7.80402
 20
921.319
 10
7.98917
 20
920.281
 10
8.18853
 20
919.27
 10
8.40359
 20
918.287
 10
8.63601
 20
917.331
 10
8.88771
 20
916.402
 10
9.1609
 20
915.5
 10
9.45811
 20
914.624
 10
9.78228
 20
913.774
 10
10.1368
 20
912.95
 10
10.5256
 20
912.151
 10
10.9533
 20
911.378
 10
11.4251
 20
910.631
 10
11.9471
 20
909.909
 10
12.5266
 20
909.213
 10
13.1715
 20
908.543
 10
13.8911
 20
907.901
 10
14.6957
 20
907.286
 10
15.5967
 20
906.699
 10
16.6062
 20
906.143
 10
17.7369
 20
905.618
 10
19.001
 20
905.125
 10
20.4103
 20
904.666
 10
21.9745
 20
904.242
 10
23.7012
 20
903.852
 10
25.5949
 20
903.496
 10
27.6569
 20
903.174
 10
29.8859
 20
902.884
 10
32.2778
 20
902.623
 10
34.8275
 20
902.39
 10
37.5287
 20
902.182
 10
40.3752
 20
901.997
 10
43.3613
 20
901.831
 10
46.4821
 20
901.683
 10
49.7335
 20
901.55
 10
53.1127
 20
901.431
 10
56.6174
 20
901.323
 10
60.2466
 20
901.226
 10
63.9997
 20
901.138
 10
67.8769
 20
901.058
 10
71.8787
 20
900.985
 10
76.006
 20
900.918
 10
80.26
 20
900.857
 10
84.6418
 20
900.801
 10
89.1528
 20
900.749
 10
93.7942
 20
900.701
 10
98.5674
 20
900.657
 10
103.473
 20
900.616
 10
108.513
 20
900.577
 10
113.687
 20
900.542
 10
118.997
 20
900.509
 10
124.442
 20
900.478
 10
130.022
 20
900.449
 10
135.738
 20
900.422
 10
141.588
 20
900.397
 10
147.573
 20
900.374
 10
153.692
 20
900.351
 10
159.942
 20
900.331
 10
166.323
 20
900.311
 10
172.833
 20
900.293
 10
179.471
 20
900.275
 10
186.233
 20
900.259
 10
193.118
 20
900.244
 10
200.123
 20
900.229
 10
207.246
 20
900.215
 10
214.483
 20
900.203
 10
221.832
 20
900.19
 10
229.289
 20
900.179
 10
236.85
 20
900.168
 10
244.514
 20
900.158
 10
252.276
 20
900.148
 10
260.132
 20
900.139
 10
268.08
 20
900.13
 10
276.115
 20
900.122
 10
284.233
 20
900.114
 10
292.432
 20
900.107
 10
300.707
 20
900.1
 10
309.055
 20
900.093
 10
317.473
 20
900.087
 10
325.956
 20
900.081
 10
334.501
 20
900.075
 10
343.105
 20
900.07
 10
351.765
 20
900.065
 10
360.476
 20
900.06
 10
369.237
 20
900.056
 10
378.044
 20
900.052
 10
386.893
 20
900.047
 10
395.783
 20
900.044
 10
404.71
 20
900.04
 10
413.672
 20
900.037
 10
422.666
 20
900.034
 10
431.689
 20
900.03
 10
440.74
 20
900.028
 10
449.817
 20
900.025
 10
458.916
 20
900.022
 10
468.037
 20
900.02
 10
477.177
 20
900.018
 10
486.335
 20
900.016
 10
495.509
 20
900.014
 10
504.698
 20
900.012
 10
513.9
 20
900.011
 10
523.113
 20
900.009
 10
532.337
 20
900.008
 10
541.571
 20
900.006
 10
550.813
 20
900.005
 10
560.062
 20
900.004
 10
569.318
 20
900.003
 10
578.579
 20
900.003
 10
587.845
 20
900.002
 10
597.115
 20
900.001
 10
606.388
 20
900.001
 10
615.664
 20
900
 10
624.942
 20
900
 10
634.22
 20
900
 10
643.5
 20
900
  0
LWPOLYLINE
100
AcDbEntity
  8
0
100
AcDbPolyline
 90
16
 70
1
 10
314.611
 20
987.167
 10
303.389
 20
987.167
 10
299.5
 20
983.278
 10
295.611
 20
987.167
 10
299.5
 20
991.056
 10
299.5
 20
1071.94
 10
295.611
 20
1075.83
 10
299.5
 20
1079.72
 10
303.389
 20
1075.83
 10
314.611
 20
1075.83
 10
318.5
 20
1079.72
 10
322.389
 20
1075.83
 10
318.5
 20
1071.94
 10
318.5
 20
991.056
 10
322.389
 20
987.167
 10
318.5
 20
983.278
  0
LWPOLYLINE
100
AcDbEntity
  8
0
100
AcDbPolyline
 90
16
 70
1
 10
631.944
 20
987.167
 10
620.722
 20
987.167
 10
616.833
 20
983.278
 10
612.944
 20
987.167
 10
616.833
 20
991.056
 10
616.833
 20
1071.94
 10
612.944
 20
1075.83
 10
616.833
 20
1079.72
 10
620.722
 20
1075.83
 10
631.944
 20
1075.83
 10
635.833
 20
1079.72
 10
639.722
 20
1075.83
 10
635.833
 20
1071.94
 10
635.833
 20
991.056
 10
639.722
 20
987.167
 10
635.833
 20
983.278
  0
LWPOLYLINE
100
AcDbEntity
  8
0
100
AcDbPolyline
 90
16
 70
1
 10
666.278
 20
987.167
 10
655.056
 20
987.167
 10
651.167
 20
983.278
 10
647.278
 20
987.167
 10
651.167
 20
991.056
 10
651.167
 20
1071.94
 10
647.278
 20
1075.83
 10
651.167
 20
1079.72
 10
655.056
 20
1075.83
 10
666.278
 20
1075.83
 10
670.167
 20
1079.72
 10
674.056
 20
1075.83
 10
670.167
 20
1071.94
 10
670.167
 20
991.056
 10
674.056
 20
987.167
 10
670.167
 20
983.278
  0
LWPOLYLINE
100
AcDbEntity
  8
0
100
AcDbPolyline
 90
16
 70
1
 10
983.611
 20
987.167
 10
972.389
 20
987.167
 10
968.5
 20
983.278
 10
964.611
 20
987.167
 10
968.5
 20
991.056
 10
968.5
 20
1071.94
 10
964.611
 20
1075.83
 10
968.5
 20
1079.72
 10
972.389
 20
1075.83
 10
983.611
 20
1075.83
 10
987.5
 20
1079.72
 10
991.389
 20
1075.83
 10
987.5
 20
1071.94
 10
987.5
 20
991.056
 10
991.389
 20
987.167
 10
987.5
 20
983.278
  0
LWPOLYLINE
100
AcDbEntity
  8
0
100
AcDbPolyline
 90
223
 70
1
 10
389.963
 20
197.068
 10
391.851
 20
197.27
 10
393.668
 20
197.604
 10
395.415
 20
198.07
 10
397.094
 20
198.663
 10
398.706
 20
199.384
 10
400.255
 20
200.229
 10
401.741
 20
201.196
 10
403.167
 20
202.284
 10
404.535
 20
203.491
 10
405.847
 20
204.814
 10
407.105
 20
206.251
 10
408.311
 20
207.801
 10
409.468
 20
209.46
 10
410.577
 20
211.228
 10
411.641
 20
213.1
 10
412.662
 20
215.076
 10
413.642
 20
217.153
 10
414.584
 20
219.329
 10
415.49
 20
221.601
 10
416.361
 20
223.967
 10
417.202
 20
226.424
 10
418.013
 20
228.971
 10
418.798
 20
231.605
 10
419.559
 20
234.322
 10
420.298
 20
237.122
 10
421.017
 20
240.001
 10
421.72
 20
242.956
 10
422.41
 20
245.986
 10
423.087
 20
249.087
 10
423.756
 20
252.257
 10
424.418
 20
255.494
 10
425.077
 20
258.794
 10
425.735
 20
262.155
 10
426.395
 20
265.574
 10
427.059
 20
269.048
 10
427.731
 20
272.576
 10
428.412
 20
276.153
 10
429.107
 20
279.777
 10
429.818
 20
283.445
 10
430.547
 20
287.154
 10
431.298
 20
290.902
 10
432.073
 20
294.685
 10
432.876
 20
298.501
 10
433.709
 20
302.346
 10
434.575
 20
306.217
 10
435.478
 20
310.112
 10
436.421
 20
314.027
 10
437.406
 20
317.96
 10
438.438
 20
321.906
 10
439.517
 20
325.864
 10
440.65
 20
329.829
 10
441.837
 20
333.799
 10
443.083
 20
337.77
 10
444.39
 20
341.739
 10
445.763
 20
345.703
 10
447.204
 20
349.659
 10
448.716
 20
353.602
 10
450.304
 20
357.531
 10
451.97
 20
361.441
 10
453.717
 20
365.329
 10
455.55
 20
369.191
 10
457.472
 20
373.025
 10
459.486
 20
376.826
 10
461.595
 20
380.592
 10
463.804
 20
384.317
 10
466.115
 20
388
 10
468.533
 20
391.637
 10
471.061
 20
395.223
 10
473.703
 20
398.755
 10
476.462
 20
402.23
 10
479.342
 20
405.643
 10
482.347
 20
408.992
 10
485.48
 20
412.271
 10
488.746
 20
415.479
 10
492.148
 20
418.609
 10
495.69
 20
421.66
 10
499.375
 20
424.627
 10
503.209
 20
427.506
 10
507.194
 20
430.293
 10
511.334
 20
432.984
 10
515.634
 20
435.576
 10
520.098
 20
438.064
 10
524.729
 20
440.444
 10
529.532
 20
442.712
 10
534.51
 20
444.865
 10
539.668
 20
446.898
 10
545.01
 20
448.806
 10
550.541
 20
450.587
 10
556.263
 20
452.235
 10
562.182
 20
453.747
 10
568.302
 20
455.117
 10
574.626
 20
456.343
 10
581.16
 20
457.42
 10
587.907
 20
458.343
 10
594.872
 20
459.107
 10
602.06
 20
459.71
 10
609.474
 20
460.146
 10
617.119
 20
460.411
 10
625
 20
460.5
 10
624.969
 20
466.523
 10
624.875
 20
472.593
 10
624.712
 20
478.707
 10
624.477
 20
484.864
 10
624.166
 20
491.062
 10
623.777
 20
497.299
 10
623.305
 20
503.575
 10
622.748
 20
509.887
 10
622.101
 20
516.234
 10
621.363
 20
522.613
 10
620.531
 20
529.023
 10
619.602
 20
535.461
 10
618.573
 20
541.926
 10
617.443
 20
548.416
 10
616.209
 20
554.929
 10
614.869
 20
561.462
 10
613.421
 20
568.013
 10
611.864
 20
574.58
 10
610.196
 20
581.161
 10
608.416
 20
587.754
 10
606.522
 20
594.355
 10
604.514
 20
600.962
 10
602.39
 20
607.574
 10
600.15
 20
614.187
 10
597.793
 20
620.799
 10
595.319
 20
627.407
 10
592.727
 20
634.008
 10
590.017
 20
640.6
 10
587.189
 20
647.18
 10
584.244
 20
653.745
 10
581.181
 20
660.292
 10
578.001
 20
666.818
 10
574.705
 20
673.32
 10
571.293
 20
679.795
 10
567.766
 20
686.24
 10
564.126
 20
692.652
 10
560.374
 20
699.027
 10
556.51
 20
705.363
 10
552.537
 20
711.655
 10
548.456
 20
717.902
 10
544.269
 20
724.098
 10
539.978
 20
730.241
 10
535.584
 20
736.327
 10
531.092
 20
742.353
 10
526.501
 20
748.314
 10
521.817
 20
754.208
 10
517.04
 20
760.031
 10
512.174
 20
765.778
 10
507.222
 20
771.446
 10
502.188
 20
777.031
 10
497.073
 20
782.53
 10
491.883
 20
787.937
 10
486.621
 20
793.25
 10
481.29
 20
798.464
 10
475.894
 20
803.574
 10
470.438
 20
808.578
 10
464.926
 20
813.47
 10
459.361
 20
818.246
 10
453.75
 20
822.902
 10
448.096
 20
827.434
 10
442.404
 20
831.836
 10
436.68
 20
836.105
 10
430.928
 20
840.237
 10
425.155
 20
844.225
 10
419.364
 20
848.067
 10
413.562
 20
851.757
 10
407.756
 20
855.29
 10
401.949
 20
858.661
 10
396.15
 20
861.867
 10
390.363
 20
864.901
 10
384.596
 20
867.759
 10
378.855
 20
870.436
 10
373.147
 20
872.927
 10
367.478
 20
875.227
 10
361.855
 20
877.33
 10
356.287
 20
879.232
 10
350.779
 20
880.927
 10
345.339
 20
882.41
 10
339.976
 20
883.675
 10
334.696
 20
884.718
 10
329.508
 20
885.532
 10
324.42
 20
886.112
 10
319.439
 20
886.453
 10
314.576
 20
886.549
 10
309.836
 20
886.395
 10
305.231
 20
885.984
 10
300.768
 20
885.311
 10
296.456
 20
884.37
 10
292.305
 20
883.155
 10
288.323
 20
881.661
 10
284.521
 20
879.881
 10
280.908
 20
877.809
 10
277.493
 20
875.44
 10
274.287
 20
872.767
 10
271.299
 20
869.784
 10
268.54
 20
866.485
 10
266.02
 20
862.863
 10
263.749
 20
858.913
 10
261.739
 20
854.627
 10
260.094
 20
850.25
 10
286.361
 20
850.25
 10
290
 20
853.889
 10
293.889
 20
850
 10
290.25
 20
846.361
 10
290.25
 20
460
 10
384.111
 20
460
 10
388
 20
463.889
 10
391.889
 20
460
 10
388
 20
456.111
 10
388
 20
376.222
 10
391.889
 20
372.333
 10
388
 20
368.444
 10
384.111
 20
372.333
 10
384.611
 20
372.833
 10
370
 20
372.833
 10
370
 20
288.828
 10
370.914
 20
284.167
 10
384.611
 20
284.167
 10
384.111
 20
284.667
 10
388
 20
288.556
 10
391.889
 20
284.667
 10
388
 20
280.778
 10
388
 20
197
  0
LWPOLYLINE
100
AcDbEntity
  8
0
100
AcDbPolyline
 90
16
 70
1
 10
421.611
 20
770.5
 10
328.389
 20
770.5
 10
324.5
 20
766.611
 10
320.611
 20
770.5
 10
324.5
 20
774.389
 10
324.5
 20
785.611
 10
320.611
 20
789.5
 10
324.5
 20
793.389
 10
328.389
 20
789.5
 10
421.611
 20
789.5
 10
425.5
 20
793.389
 10
429.389
 20
789.5
 10
425.5
 20
785.611
 10
425.5
 20
774.389
 10
429.389
 20
770.5
 10
425.5
 20
766.611
  0
LWPOLYLINE
100
AcDbEntity
  8
0
100
AcDbPolyline
 90
16
 70
1
 10
421.611
 20
520.5
 10
328.389
 20
520.5
 10
324.5
 20
516.611
 10
320.611
 20
520.5
 10
324.5
 20
524.389
 10
324.5
 20
535.611
 10
320.611
 20
539.5
 10
324.5
 20
543.389
 10
328.389
 20
539.5
 10
421.611
 20
539.5
 10
425.5
 20
543.389
 10
429.389
 20
539.5
 10
425.5
 20
535.611
 10
425.5
 20
524.389
 10
429.389
 20
520.5
 10
425.5
 20
516.611
  0
LWPOLYLINE
100
AcDbEntity
  8
0
100
AcDbPolyline
 90
223
 70
1
 10
899
 20
280.778
 10
895.111
 20
284.667
 10
899
 20
288.556
 10
902.889
 20
284.667
 10
902.389
 20
284.167
 10
916.086
 20
284.167
 10
917
 20
288.828
 10
917
 20
372.833
 10
902.389
 20
372.833
 10
902.889
 20
372.333
 10
899
 20
368.444
 10
895.111
 20
372.333
 10
899
 20
376.222
 10
899
 20
456.111
 10
895.111
 20
460
 10
899
 20
463.889
 10
902.889
 20
460
 10
996.75
 20
460
 10
996.75
 20
846.361
 10
993.111
 20
850
 10
997
 20
853.889
 10
1000.64
 20
850.25
 10
1026.91
 20
850.25
 10
1025.26
 20
854.627
 10
1023.25
 20
858.913
 10
1020.98
 20
862.863
 10
1018.46
 20
866.485
 10
1015.7
 20
869.784
 10
1012.71
 20
872.767
 10
1009.51
 20
875.44
 10
1006.09
 20
877.809
 10
1002.48
 20
879.881
 10
998.677
 20
881.661
 10
994.695
 20
883.155
 10
990.544
 20
884.37
 10
986.232
 20
885.311
 10
981.769
 20
885.984
 10
977.164
 20
886.395
 10
972.424
 20
886.549
 10
967.561
 20
886.453
 10
962.58
 20
886.112
 10
957.492
 20
885.532
 10
952.304
 20
884.718
 10
947.024
 20
883.675
 10
941.661
 20
882.41
 10
936.221
 20
880.927
 10
930.713
 20
879.232
 10
925.145
 20
877.33
 10
919.522
 20
875.227
 10
913.853
 20
872.927
 10
908.145
 20
870.436
 10
902.404
 20
867.759
 10
896.637
 20
864.901
 10
890.85
 20
861.867
 10
885.051
 20
858.661
 10
879.244
 20
855.29
 10
873.438
 20
851.757
 10
867.636
 20
848.067
 10
861.845
 20
844.225
 10
856.072
 20
840.237
 10
850.32
 20
836.105
 10
844.596
 20
831.836
 10
838.904
 20
827.434
 10
833.25
 20
822.902
 10
827.639
 20
818.246
 10
822.074
 20
813.47
 10
816.562
 20
808.578
 10
811.106
 20
803.574
 10
805.71
 20
798.464
 10
800.379
 20
793.25
 10
795.117
 20
787.937
 10
789.927
 20
782.53
 10
784.812
 20
777.031
 10
779.778
 20
771.446
 10
774.826
 20
765.778
 10
769.96
 20
760.031
 10
765.183
 20
754.208
 10
760.499
 20
748.314
 10
755.908
 20
742.353
 10
751.416
 20
736.327
 10
747.022
 20
730.241
 10
742.731
 20
724.098
 10
738.544
 20
717.902
 10
734.463
 20
711.655
 10
730.49
 20
705.363
 10
726.626
 20
699.027
 10
722.874
 20
692.652
 10
719.234
 20
686.24
 10
715.707
 20
679.795
 10
712.295
 20
673.32
 10
708.999
 20
666.818
 10
705.819
 20
660.292
 10
702.756
 20
653.745
 10
699.811
 20
647.18
 10
696.983
 20
640.6
 10
694.273
 20
634.008
 10
691.681
 20
627.407
 10
689.207
 20
620.799
 10
686.85
 20
614.187
 10
684.61
 20
607.574
 10
682.486
 20
600.962
 10
680.478
 20
594.355
 10
678.584
 20
587.754
 10
676.804
 20
581.161
 10
675.136
 20
574.58
 10
673.579
 20
568.013
 10
672.131
 20
561.462
 10
670.791
 20
554.929
 10
669.557
 20
548.416
 10
668.427
 20
541.926
 10
667.398
 20
535.461
 10
666.469
 20
529.023
 10
665.637
 20
522.613
 10
664.899
 20
516.234
 10
664.252
 20
509.887
 10
663.695
 20
503.575
 10
663.223
 20
497.299
 10
662.834
 20
491.062
 10
662.523
 20
484.864
 10
662.288
 20
478.707
 10
662.125
 20
472.593
 10
662.031
 20
466.523
 10
662
 20
460.5
 10
669.881
 20
460.411
 10
677.526
 20
460.146
 10
684.94
 20
459.71
 10
692.128
 20
459.107
 10
699.093
 20
458.343
 10
705.84
 20
457.42
 10
712.374
 20
456.343
 10
718.698
 20
455.117
 10
724.818
 20
453.747
 10
730.737
 20
452.235
 10
736.459
 20
450.587
 10
741.99
 20
448.806
 10
747.332
 20
446.898
 10
752.49
 20
444.865
 10
757.468
 20
442.712
 10
762.271
 20
440.444
 10
766.902
 20
438.064
 10
771.366
 20
435.576
 10
775.666
 20
432.984
 10
779.806
 20
430.293
 10
783.791
 20
427.506
 10
787.625
 20
424.627
 10
791.31
 20
421.66
 10
794.852
 20
418.609
 10
798.254
 20
415.479
 10
801.52
 20
412.271
 10
804.653
 20
408.992
 10
807.658
 20
405.643
 10
810.538
 20
402.23
 10
813.297
 20
398.755
 10
815.939
 20
395.223
 10
818.467
 20
391.637
 10
820.885
 20
388
 10
823.196
 20
384.317
 10
825.405
 20
380.592
 10
827.514
 20
376.826
 10
829.528
 20
373.025
 10
831.45
 20
369.191
 10
833.283
 20
365.329
 10
835.03
 20
361.441
 10
836.696
 20
357.531
 10
838.284
 20
353.602
 10
839.796
 20
349.659
 10
841.237
 20
345.703
 10
842.61
 20
341.739
 10
843.917
 20
337.77
 10
845.163
 20
333.799
 10
846.35
 20
329.829
 10
847.483
 20
325.864
 10
848.562
 20
321.906
 10
849.594
 20
317.96
 10
850.579
 20
314.027
 10
851.522
 20
310.112
 10
852.425
 20
306.217
 10
853.291
 20
302.346
 10
854.124
 20
298.501
 10
854.927
 20
294.685
 10
855.702
 20
290.902
 10
856.453
 20
287.154
 10
857.182
 20
283.445
 10
857.893
 20
279.777
 10
858.588
 20
276.153
 10
859.269
 20
272.576
 10
859.941
 20
269.048
 10
860.605
 20
265.574
 10
861.265
 20
262.155
 10
861.923
 20
258.794
 10
862.582
 20
255.494
 10
863.244
 20
252.257
 10
863.913
 20
249.087
 10
864.59
 20
245.986
 10
865.28
 20
242.956
 10
865.983
 20
240.001
 10
866.702
 20
237.122
 10
867.441
 20
234.322
 10
868.202
 20
231.605
 10
868.987
 20
228.971
 10
869.798
 20
226.424
 10
870.639
 20
223.967
 10
871.51
 20
221.601
 10
872.416
 20
219.329
 10
873.358
 20
217.153
 10
874.338
 20
215.076
 10
875.359
 20
213.1
 10
876.423
 20
211.228
 10
877.532
 20
209.46
 10
878.689
 20
207.801
 10
879.895
 20
206.251
 10
881.153
 20
204.814
 10
882.465
 20
203.491
 10
883.833
 20
202.284
 10
885.259
 20
201.196
 10
886.745
 20
200.229
 10
888.294
 20
199.384
 10
889.906
 20
198.663
 10
891.585
 20
198.07
 10
893.332
 20
197.604
 10
895.149
 20
197.27
 10
897.037
 20
197.068
 10
899
 20
197
  0
LWPOLYLINE
100
AcDbEntity
  8
0
100
AcDbPolyline
 90
16
 70
1
 10
958.611
 20
770.5
 10
865.389
 20
770.5
 10
861.5
 20
766.611
 10
857.611
 20
770.5
 10
861.5
 20
774.389
 10
861.5
 20
785.611
 10
857.611
 20
789.5
 10
861.5
 20
793.389
 10
865.389
 20
789.5
 10
958.611
 20
789.5
 10
962.5
 20
793.389
 10
966.389
 20
789.5
 10
962.5
 20
785.611
 10
962.5
 20
774.389
 10
966.389
 20
770.5
 10
962.5
 20
766.611
  0
LWPOLYLINE
100
AcDbEntity
  8
0
100
AcDbPolyline
 90
16
 70
1
 10
958.611
 20
520.5
 10
865.389
 20
520.5
 10
861.5
 20
516.611
 10
857.611
 20
520.5
 10
861.5
 20
524.389
 10
861.5
 20
535.611
 10
857.611
 20
539.5
 10
861.5
 20
543.389
 10
865.389
 20
539.5
 10
958.611
 20
539.5
 10
962.5
 20
543.389
 10
966.389
 20
539.5
 10
962.5
 20
535.611
 10
962.5
 20
524.389
 10
966.389
 20
520.5
 10
962.5
 20
516.611
  0
LWPOLYLINE
100
AcDbEntity
  8
0
100
AcDbPolyline
 90
24
 70
1
 10
135
 20
533
 10
135
 20
547.611
 10
131.111
 20
551.5
 10
135
 20
555.389
 10
138.889
 20
551.5
 10
145
 20
551.5
 10
145
 20
848.5
 10
138.889
 20
848.5
 10
135
 20
844.611
 10
131.111
 20
848.5
 10
135
 20
852.389
 10
135
 20
867
 10
35
 20
867
 10
35
 20
852.389
 10
38.8891
 20
848.5
 10
35
 20
844.611
 10
31.1109
 20
848.5
 10
25
 20
848.5
 10
25
 20
551.5
 10
31.1109
 20
551.5
 10
35
 20
555.389
 10
38.8891
 20
551.5
 10
35
 20
547.611
 10
35
 20
533
  0
LWPOLYLINE
100
AcDbEntity
  8
0
100
AcDbPolyline
 90
24
 70
1
 10
1252
 20
533
 10
1252
 20
547.611
 10
1248.11
 20
551.5
 10
1252
 20
555.389
 10
1255.89
 20
551.5
 10
1262
 20
551.5
 10
1262
 20
848.5
 10
1255.89
 20
848.5
 10
1252
 20
844.611
 10
1248.11
 20
848.5
 10
1252
 20
852.389
 10
1252
 20
867
 10
1152
 20
867
 10
1152
 20
852.389
 10
1155.89
 20
848.5
 10
1152
 20
844.611
 10
1148.11
 20
848.5
 10
1142
 20
848.5
 10
1142
 20
551.5
 10
1148.11
 20
551.5
 10
1152
 20
555.389
 10
1155.89
 20
551.5
 10
1152
 20
547.611
 10
1152
 20
533
  0
LWPOLYLINE
100
AcDbEntity
  8
0
100
AcDbPolyline
 90
223
 70
1
 10
320.164
 20
13.6053
 10
324.769
 20
14.0162
 10
329.232
 20
14.6893
 10
333.544
 20
15.6302
 10
337.695
 20
16.8448
 10
341.677
 20
18.3391
 10
345.479
 20
20.1191
 10
349.092
 20
22.1907
 10
352.507
 20
24.56
 10
355.713
 20
27.233
 10
358.701
 20
30.2161
 10
361.46
 20
33.5153
 10
363.98
 20
37.137
 10
366.251
 20
41.0874
 10
368.261
 20
45.3729
 10
369.906
 20
49.75
 10
343.639
 20
49.75
 10
340
 20
46.1109
 10
336.111
 20
50
 10
339.75
 20
53.6391
 10
339.75
 20
440
 10
245.889
 20
440
 10
242
 20
436.111
 10
238.111
 20
440
 10
242
 20
443.889
 10
242
 20
523.778
 10
238.111
 20
527.667
 10
242
 20
531.556
 10
245.889
 20
527.667
 10
245.389
 20
527.167
 10
260
 20
527.167
 10
260
 20
611.172
 10
259.086
 20
615.833
 10
245.389
 20
615.833
 10
245.889
 20
615.333
 10
242
 20
611.444
 10
238.111
 20
615.333
 10
242
 20
619.222
 10
242
 20
703
 10
240.037
 20
702.932
 10
238.149
 20
702.73
 10
236.332
 20
702.396
 10
234.585
 20
701.93
 10
232.906
 20
701.337
 10
231.294
 20
700.616
 10
229.745
 20
699.771
 10
228.259
 20
698.804
 10
226.833
 20
697.716
 10
225.465
 20
696.509
 10
224.153
 20
695.186
 10
222.895
 20
693.749
 10
221.689
 20
692.199
 10
220.532
 20
690.54
 10
219.423
 20
688.772
 10
218.359
 20
686.9
 10
217.338
 20
684.924
 10
216.358
 20
682.847
 10
215.416
 20
680.671
 10
214.51
 20
678.399
 10
213.639
 20
676.033
 10
212.798
 20
673.576
 10
211.987
 20
671.029
 10
211.202
 20
668.395
 10
210.441
 20
665.678
 10
209.702
 20
662.878
 10
208.983
 20
659.999
 10
208.28
 20
657.044
 10
207.59
 20
654.014
 10
206.913
 20
650.913
 10
206.244
 20
647.743
 10
205.582
 20
644.506
 10
204.923
 20
641.206
 10
204.265
 20
637.845
 10
203.605
 20
634.426
 10
202.941
 20
630.952
 10
202.269
 20
627.424
 10
201.588
 20
623.847
 10
200.893
 20
620.223
 10
200.182
 20
616.555
 10
199.453
 20
612.846
 10
198.702
 20
609.098
 10
197.927
 20
605.315
 10
197.124
 20
601.499
 10
196.291
 20
597.654
 10
195.425
 20
593.783
 10
194.522
 20
589.888
 10
193.579
 20
585.973
 10
192.594
 20
582.04
 10
191.562
 20
578.094
 10
190.483
 20
574.136
 10
189.35
 20
570.171
 10
188.163
 20
566.201
 10
186.917
 20
562.23
 10
185.61
 20
558.261
 10
184.237
 20
554.297
 10
182.796
 20
550.341
 10
181.284
 20
546.398
 10
179.696
 20
542.469
 10
178.03
 20
538.559
 10
176.283
 20
534.671
 10
174.45
 20
530.809
 10
172.528
 20
526.975
 10
170.514
 20
523.174
 10
168.405
 20
519.408
 10
166.196
 20
515.683
 10
163.885
 20
512
 10
161.467
 20
508.363
 10
158.939
 20
504.777
 10
156.297
 20
501.245
 10
153.538
 20
497.77
 10
150.658
 20
494.357
 10
147.653
 20
491.008
 10
144.52
 20
487.729
 10
141.254
 20
484.521
 10
137.852
 20
481.391
 10
134.31
 20
478.34
 10
130.625
 20
475.373
 10
126.791
 20
472.494
 10
122.806
 20
469.707
 10
118.666
 20
467.016
 10
114.366
 20
464.424
 10
109.902
 20
461.936
 10
105.271
 20
459.556
 10
100.468
 20
457.288
 10
95.4899
 20
455.135
 10
90.3317
 20
453.102
 10
84.9895
 20
451.194
 10
79.4593
 20
449.413
 10
73.7369
 20
447.765
 10
67.818
 20
446.253
 10
61.6984
 20
444.883
 10
55.3739
 20
443.657
 10
48.8401
 20
442.58
 10
42.0928
 20
441.657
 10
35.1276
 20
440.893
 10
27.9401
 20
440.29
 10
20.526
 20
439.854
 10
12.8807
 20
439.589
 10
5
 20
439.5
 10
5.03069
 20
433.477
 10
5.1255
 20
427.407
 10
5.28839
 20
421.293
 10
5.52317
 20
415.136
 10
5.83353
 20
408.938
 10
6.22297
 20
402.701
 10
6.69485
 20
396.425
 10
7.25239
 20
390.113
 10
7.89864
 20
383.766
 10
8.6365
 20
377.387
 10
9.46873
 20
370.977
 10
10.3979
 20
364.539
 10
11.4265
 20
358.074
 10
12.5569
 20
351.584
 10
13.791
 20
345.071
 10
15.131
 20
338.538
 10
16.5787
 20
331.987
 10
18.1358
 20
325.42
 10
19.8038
 20
318.839
 10
21.584
 20
312.246
 10
23.4777
 20
305.645
 10
25.4861
 20
299.038
 10
27.6099
 20
292.426
 10
29.85
 20
285.813
 10
32.207
 20
279.201
 10
34.6814
 20
272.593
 10
37.2734
 20
265.992
 10
39.9833
 20
259.4
 10
42.8111
 20
252.82
 10
45.7565
 20
246.255
 10
48.8193
 20
239.708
 10
51.9991
 20
233.182
 10
55.2953
 20
226.68
 10
58.7071
 20
220.205
 10
62.2335
 20
213.76
 10
65.8736
 20
207.348
 10
69.6262
 20
200.973
 10
73.4898
 20
194.637
 10
77.4629
 20
188.345
 10
81.544
 20
182.098
 10
85.7311
 20
175.902
 10
90.0223
 20
169.759
 10
94.4155
 20
163.673
 10
98.9084
 20
157.647
 10
103.499
 20
151.686
 10
108.183
 20
145.792
 10
112.96
 20
139.969
 10
117.826
 20
134.222
 10
122.778
 20
128.554
 10
127.812
 20
122.969
 10
132.927
 20
117.47
 10
138.117
 20
112.063
 10
143.379
 20
106.75
 10
148.71
 20
101.536
 10
154.106
 20
96.4256
 10
159.562
 20
91.4221
 10
165.074
 20
86.5302
 10
170.639
 20
81.754
 10
176.25
 20
77.098
 10
181.904
 20
72.5664
 10
187.596
 20
68.1638
 10
193.32
 20
63.8946
 10
199.072
 20
59.7633
 10
204.845
 20
55.7746
 10
210.636
 20
51.9331
 10
216.438
 20
48.2434
 10
222.244
 20
44.7104
 10
228.051
 20
41.3388
 10
233.85
 20
38.1334
 10
239.637
 20
35.0992
 10
245.404
 20
32.241
 10
251.145
 20
29.5639
 10
256.853
 20
27.073
 10
262.522
 20
24.7733
 10
268.145
 20
22.6699
 10
273.713
 20
20.7681
 10
279.221
 20
19.0732
 10
284.661
 20
17.5903
 10
290.024
 20
16.3249
 10
295.304
 20
15.2824
 10
300.492
 20
14.4682
 10
305.58
 20
13.8878
 10
310.561
 20
13.5468
 10
315.424
 20
13.4507
  0
LWPOLYLINE
100
AcDbEntity
  8
0
100
AcDbPolyline
 90
16
 70
1
 10
301.611
 20
360.5
 10
208.389
 20
360.5
 10
204.5
 20
356.611
 10
200.611
 20
360.5
 10
204.5
 20
364.389
 10
204.5
 20
375.611
 10
200.611
 20
379.5
 10
204.5
 20
383.389
 10
208.389
 20
379.5
 10
301.611
 20
379.5
 10
305.5
 20
383.389
 10
309.389
 20
379.5
 10
305.5
 20
375.611
 10
305.5
 20
364.389
 10
309.389
 20
360.5
 10
305.5
 20
356.611
  0
LWPOLYLINE
100
AcDbEntity
  8
0
100
AcDbPolyline
 90
16
 70
1
 10
301.611
 20
110.5
 10
208.389
 20
110.5
 10
204.5
 20
106.611
 10
200.611
 20
110.5
 10
204.5
 20
114.389
 10
204.5
 20
125.611
 10
200.611
 20
129.5
 10
204.5
 20
133.389
 10
208.389
 20
129.5
 10
301.611
 20
129.5
 10
305.5
 20
133.389
 10
309.389
 20
129.5
 10
305.5
 20
125.611
 10
305.5
 20
114.389
 10
309.389
 20
110.5
 10
305.5
 20
106.611
  0
LWPOLYLINE
100
AcDbEntity
  8
0
100
AcDbPolyline
 90
223
 70
1
 10
976.439
 20
13.5468
 10
981.42
 20
13.8878
 10
986.508
 20
14.4682
 10
991.696
 20
15.2824
 10
996.976
 20
16.3249
 10
1002.34
 20
17.5903
 10
1007.78
 20
19.0732
 10
1013.29
 20
20.7681
 10
1018.86
 20
22.6699
 10
1024.48
 20
24.7733
 10
1030.15
 20
27.073
 10
1035.86
 20
29.5639
 10
1041.6
 20
32.241
 10
1047.36
 20
35.0992
 10
1053.15
 20
38.1334
 10
1058.95
 20
41.3388
 10
1064.76
 20
44.7104
 10
1070.56
 20
48.2434
 10
1076.36
 20
51.9331
 10
1082.15
 20
55.7746
 10
1087.93
 20
59.7633
 10
1093.68
 20
63.8946
 10
1099.4
 20
68.1638
 10
1105.1
 20
72.5664
 10
1110.75
 20
77.098
 10
1116.36
 20
81.754
 10
1121.93
 20
86.5302
 10
1127.44
 20
91.4221
 10
1132.89
 20
96.4256
 10
1138.29
 20
101.536
 10
1143.62
 20
106.75
 10
1148.88
 20
112.063
 10
1154.07
 20
117.47
 10
1159.19
 20
122.969
 10
1164.22
 20
128.554
 10
1169.17
 20
134.222
 10
1174.04
 20
139.969
 10
1178.82
 20
145.792
 10
1183.5
 20
151.686
 10
1188.09
 20
157.647
 10
1192.58
 20
163.673
 10
1196.98
 20
169.759
 10
1201.27
 20
175.902
 10
1205.46
 20
182.098
 10
1209.54
 20
188.345
 10
1213.51
 20
194.637
 10
1217.37
 20
200.973
 10
1221.13
 20
207.348
 10
1224.77
 20
213.76
 10
1228.29
 20
220.205
 10
1231.7
 20
226.68
 10
1235
 20
233.182
 10
1238.18
 20
239.708
 10
1241.24
 20
246.255
 10
1244.19
 20
252.82
 10
1247.02
 20
259.4
 10
1249.73
 20
265.992
 10
1252.32
 20
272.593
 10
1254.79
 20
279.201
 10
1257.15
 20
285.813
 10
1259.39
 20
292.426
 10
1261.51
 20
299.038
 10
1263.52
 20
305.645
 10
1265.42
 20
312.246
 10
1267.2
 20
318.839
 10
1268.86
 20
325.42
 10
1270.42
 20
331.987
 10
1271.87
 20
338.538
 10
1273.21
 20
345.071
 10
1274.44
 20
351.584
 10
1275.57
 20
358.074
 10
1276.6
 20
364.539
 10
1277.53
 20
370.977
 10
1278.36
 20
377.387
 10
1279.1
 20
383.766
 10
1279.75
 20
390.113
 10
1280.31
 20
396.425
 10
1280.78
 20
402.701
 10
1281.17
 20
408.938
 10
1281.48
 20
415.136
 10
1281.71
 20
421.293
 10
1281.87
 20
427.407
 10
1281.97
 20
433.477
 10
1282
 20
439.5
 10
1274.12
 20
439.589
 10
1266.47
 20
439.854
 10
1259.06
 20
440.29
 10
1251.87
 20
440.893
 10
1244.91
 20
441.657
 10
1238.16
 20
442.58
 10
1231.63
 20
443.657
 10
1225.3
 20
444.883
 10
1219.18
 20
446.253
 10
1213.26
 20
447.765
 10
1207.54
 20
449.413
 10
1202.01
 20
451.194
 10
1196.67
 20
453.102
 10
1191.51
 20
455.135
 10
1186.53
 20
457.288
 10
1181.73
 20
459.556
 10
1177.1
 20
461.936
 10
1172.63
 20
464.424
 10
1168.33
 20
467.016
 10
1164.19
 20
469.707
 10
1160.21
 20
472.494
 10
1156.38
 20
475.373
 10
1152.69
 20
478.34
 10
1149.15
 20
481.391
 10
1145.75
 20
484.521
 10
1142.48
 20
487.729
 10
1139.35
 20
491.008
 10
1136.34
 20
494.357
 10
1133.46
 20
497.77
 10
1130.7
 20
501.245
 10
1128.06
 20
504.777
 10
1125.53
 20
508.363
 10
1123.12
 20
512
 10
1120.8
 20
515.683
 10
1118.6
 20
519.408
 10
1116.49
 20
523.174
 10
1114.47
 20
526.975
 10
1112.55
 20
530.809
 10
1110.72
 20
534.671
 10
1108.97
 20
538.559
 10
1107.3
 20
542.469
 10
1105.72
 20
546.398
 10
1104.2
 20
550.341
 10
1102.76
 20
554.297
 10
1101.39
 20
558.261
 10
1100.08
 20
562.23
 10
1098.84
 20
566.201
 10
1097.65
 20
570.171
 10
1096.52
 20
574.136
 10
1095.44
 20
578.094
 10
1094.41
 20
582.04
 10
1093.42
 20
585.973
 10
1092.48
 20
589.888
 10
1091.58
 20
593.783
 10
1090.71
 20
597.654
 10
1089.88
 20
601.499
 10
1089.07
 20
605.315
 10
1088.3
 20
609.098
 10
1087.55
 20
612.846
 10
1086.82
 20
616.555
 10
1086.11
 20
620.223
 10
1085.41
 20
623.847
 10
1084.73
 20
627.424
 10
1084.06
 20
630.952
 10
1083.39
 20
634.426
 10
1082.73
 20
637.845
 10
1082.08
 20
641.206
 10
1081.42
 20
644.506
 10
1080.76
 20
647.743
 10
1080.09
 20
650.913
 10
1079.41
 20
654.014
 10
1078.72
 20
657.044
 10
1078.02
 20
659.999
 10
1077.3
 20
662.878
 10
1076.56
 20
665.678
 10
1075.8
 20
668.395
 10
1075.01
 20
671.029
 10
1074.2
 20
673.576
 10
1073.36
 20
676.033
 10
1072.49
 20
678.399
 10
1071.58
 20
680.671
 10
1070.64
 20
682.847
 10
1069.66
 20
684.924
 10
1068.64
 20
686.9
 10
1067.58
 20
688.772
 10
1066.47
 20
690.54
 10
1065.31
 20
692.199
 10
1064.11
 20
693.749
 10
1062.85
 20
695.186
 10
1061.54
 20
696.509
 10
1060.17
 20
697.716
 10
1058.74
 20
698.804
 10
1057.25
 20
699.771
 10
1055.71
 20
700.616
 10
1054.09
 20
701.337
 10
1052.41
 20
701.93
 10
1050.67
 20
702.396
 10
1048.85
 20
702.73
 10
1046.96
 20
702.932
 10
1045
 20
703
 10
1045
 20
619.222
 10
1048.89
 20
615.333
 10
1045
 20
611.444
 10
1041.11
 20
615.333
 10
1041.61
 20
615.833
 10
1027.91
 20
615.833
 10
1027
 20
611.172
 10
1027
 20
527.167
 10
1041.61
 20
527.167
 10
1041.11
 20
527.667
 10
1045
 20
531.556
 10
1048.89
 20
527.667
 10
1045
 20
523.778
 10
1045
 20
443.889
 10
1048.89
 20
440
 10
1045
 20
436.111
 10
1041.11
 20
440
 10
947.25
 20
440
 10
947.25
 20
53.6391
 10
950.889
 20
50
 10
947
 20
46.1109
 10
943.361
 20
49.75
 10
917.094
 20
49.75
 10
918.739
 20
45.3729
 10
920.749
 20
41.0874
 10
923.02
 20
37.137
 10
925.54
 20
33.5153
 10
928.299
 20
30.2161
 10
931.287
 20
27.233
 10
934.493
 20
24.56
 10
937.908
 20
22.1907
 10
941.521
 20
20.1191
 10
945.323
 20
18.3391
 10
949.305
 20
16.8448
 10
953.456
 20
15.6302
 10
957.768
 20
14.6893
 10
962.231
 20
14.0162
 10
966.836
 20
13.6053
 10
971.576
 20
13.4507
  0
LWPOLYLINE
100
AcDbEntity
  8
0
100
AcDbPolyline
 90
16
 70
1
 10
1078.61
 20
360.5
 10
985.389
 20
360.5
 10
981.5
 20
356.611
 10
977.611
 20
360.5
 10
981.5
 20
364.389
 10
981.5
 20
375.611
 10
977.611
 20
379.5
 10
981.5
 20
383.389
 10
985.389
 20
379.5
 10
1078.61
 20
379.5
 10
1082.5
 20
383.389
 10
1086.39
 20
379.5
 10
1082.5
 20
375.611
 10
1082.5
 20
364.389
 10
1086.39
 20
360.5
 10
1082.5
 20
356.611
  0
LWPOLYLINE
100
AcDbEntity
  8
0
100
AcDbPolyline
 90
16
 70
1
 10
1078.61
 20
110.5
 10
985.389
 20
110.5
 10
981.5
 20
106.611
 10
977.611
 20
110.5
 10
981.5
 20
114.389
 10
981.5
 20
125.611
 10
977.611
 20
129.5
 10
981.5
 20
133.389
 10
985.389
 20
129.5
 10
1078.61
 20
129.5
 10
1082.5
 20
133.389
 10
1086.39
 20
129.5
 10
1082.5
 20
125.611
 10
1082.5
 20
114.389
 10
1086.39
 20
110.5
 10
1082.5
 20
106.611
  0
LWPOLYLINE
100
AcDbEntity
  8
0
100
AcDbPolyline
 90
24
 70
1
 10
595
 20
33
 10
595
 20
47.6109
 10
591.111
 20
51.5
 10
595
 20
55.3891
 10
598.889
 20
51.5
 10
605
 20
51.5
 10
605
 20
348.5
 10
598.889
 20
348.5
 10
595
 20
344.611
 10
591.111
 20
348.5
 10
595
 20
352.389
 10
595
 20
367
 10
495
 20
367
 10
495
 20
352.389
 10
498.889
 20
348.5
 10
495
 20
344.611
 10
491.111
 20
348.5
 10
485
 20
348.5
 10
485
 20
51.5
 10
491.111
 20
51.5
 10
495
 20
55.3891
 10
498.889
 20
51.5
 10
495
 20
47.6109
 10
495
 20
33
  0
LWPOLYLINE
100
AcDbEntity
  8
0
100
AcDbPolyline
 90
24
 70
1
 10
792
 20
33
 10
792
 20
47.6109
 10
788.111
 20
51.5
 10
792
 20
55.3891
 10
795.889
 20
51.5
 10
802
 20
51.5
 10
802
 20
348.5
 10
795.889
 20
348.5
 10
792
 20
344.611
 10
788.111
 20
348.5
 10
792
 20
352.389
 10
792
 20
367
 10
692
 20
367
 10
692
 20
352.389
 10
695.889
 20
348.5
 10
692
 20
344.611
 10
688.111
 20
348.5
 10
682
 20
348.5
 10
682
 20
51.5
 10
688.111
 20
51.5
 10
692
 20
55.3891
 10
695.889
 20
51.5
 10
692
 20
47.6109
 10
692
 20
33
  0
ENDSEC
  0
EOF
